<svg width="43" height="42" viewBox="0 0 43 42" fill="none" xmlns="http://www.w3.org/2000/svg">
<path d="M14.6744 5.25195C16.1183 -1.75065 26.1212 -1.75065 27.5651 5.25195C28.2498 8.57378 31.365 10.8299 34.7369 10.4648C41.8889 9.69071 45.158 19.1869 38.9791 22.8711L38.5602 23.1211C35.6663 24.8469 34.4998 28.4507 35.8336 31.5449L36.1002 32.1631C38.9143 38.6913 30.8006 44.4177 25.5924 39.5791C23.0707 37.2364 19.1688 37.2364 16.6471 39.5791C11.439 44.4177 3.32519 38.6913 6.13929 32.1631L6.40589 31.5449C7.73971 28.4507 6.57322 24.8469 3.67933 23.1211L3.26039 22.8711C-2.91843 19.1869 0.350637 9.69076 7.50257 10.4648C10.8745 10.8299 13.9897 8.57378 14.6744 5.25195ZM10.6188 21.9814C10.6188 23.2945 10.8901 24.5945 11.4176 25.8076C11.9453 27.0209 12.719 28.1232 13.694 29.0518C14.669 29.9803 15.8263 30.7172 17.1002 31.2197C18.374 31.7222 19.7391 31.9814 21.1178 31.9814C22.4967 31.9814 23.8625 31.7223 25.1364 31.2197C26.4103 30.7172 27.5676 29.9803 28.5426 29.0518C29.5176 28.1232 30.2913 27.0209 30.819 25.8076C31.3465 24.5945 31.6187 23.2945 31.6188 21.9814H10.6188Z" fill="#2563EB"/>
</svg>
